<?xml version="1.0" encoding="utf-8"?>
<!-- Generator: Adobe Illustrator 20.1.0, SVG Export Plug-In . SVG Version: 6.00 Build 0)  -->
<svg version="1.1" xmlns="http://www.w3.org/2000/svg" xmlns:xlink="http://www.w3.org/1999/xlink" x="0px" y="0px"
	 viewBox="0 0 960 960" style="enable-background:new 0 0 960 960;" xml:space="preserve">
<style type="text/css">
	.st0{display:none;}
	.st1{display:inline;}
	.st2{fill:url(#SVGID_1_);}
	.st3{fill:url(#SVGID_2_);}
	.st4{fill:url(#SVGID_3_);stroke:#000000;stroke-width:10;stroke-miterlimit:10;}
	.st5{fill:url(#SVGID_4_);}
	.st6{fill:url(#SVGID_5_);}
	.st7{fill:url(#SVGID_6_);stroke:#000000;stroke-width:10;stroke-miterlimit:10;}
	.st8{fill:url(#SVGID_7_);}
	.st9{fill:url(#SVGID_8_);}
	.st10{fill:url(#SVGID_9_);stroke:#000000;stroke-width:10;stroke-miterlimit:10;}
	.st11{fill:url(#SVGID_10_);}
	.st12{fill:url(#SVGID_11_);}
	.st13{fill:url(#SVGID_12_);stroke:#000000;stroke-width:10;stroke-miterlimit:10;}
</style>
<g id="Gryffindor" class="st0">
	<g class="st1">
		<radialGradient id="SVGID_1_" cx="480" cy="480" r="422.0475" gradientUnits="userSpaceOnUse">
			<stop  offset="0" style="stop-color:#FFAC6A"/>
			<stop  offset="1" style="stop-color:#7F2A00"/>
		</radialGradient>
		<circle class="st2" cx="480" cy="480" r="422"/>
		<radialGradient id="SVGID_2_" cx="480" cy="480" r="422.0475" gradientUnits="userSpaceOnUse">
			<stop  offset="0" style="stop-color:#FFFFFF"/>
			<stop  offset="1" style="stop-color:#000000"/>
		</radialGradient>
		<path class="st3" d="M480,67c55.8,0,109.9,10.9,160.8,32.5c49.2,20.8,93.4,50.6,131.3,88.5c37.9,37.9,67.7,82.1,88.5,131.3
			c21.5,50.9,32.5,105,32.5,160.8s-10.9,109.9-32.5,160.8c-20.8,49.2-50.6,93.4-88.5,131.3c-37.9,37.9-82.1,67.7-131.3,88.5
			C589.9,882.1,535.8,893,480,893s-109.9-10.9-160.8-32.5c-49.2-20.8-93.4-50.6-131.3-88.5C150,734.1,120.2,690,99.4,640.8
			C77.9,589.9,67,535.8,67,480s10.9-109.9,32.5-160.8c20.8-49.2,50.6-93.4,88.5-131.3c37.9-37.9,82.1-67.7,131.3-88.5
			C370.1,77.9,424.2,67,480,67 M480,58c-233.1,0-422,189-422,422s189,422,422,422s422-189,422-422S713.1,58,480,58L480,58z"/>
	</g>
	<g class="st1">
		<linearGradient id="SVGID_3_" gradientUnits="userSpaceOnUse" x1="267.0874" y1="481.0571" x2="626.5342" y2="481.0571">
			<stop  offset="0" style="stop-color:#947400"/>
			<stop  offset="1" style="stop-color:#FFF655"/>
		</linearGradient>
		<path class="st4" d="M626.5,680.6c-25.3,9.1-75.4,24-134.5,24c-66.3,0-120.9-16.9-163.8-57.8c-37.7-36.4-61.1-94.9-61.1-163.1
			c0.6-130.6,90.3-226.2,237.2-226.2c50.7,0,90.3,11,109.2,20.1l-13.7,46.1c-23.4-10.4-52.6-18.8-96.8-18.8
			c-106.6,0-176.1,66.3-176.1,176.1c0,111.1,66.9,176.8,169,176.8c37,0,62.4-5.2,75.4-11.7V515.5h-89V470h144.3V680.6z"/>
	</g>
</g>
<g id="Slytherin" class="st0">
	<g class="st1">
		<radialGradient id="SVGID_4_" cx="480" cy="480" r="422.0475" gradientUnits="userSpaceOnUse">
			<stop  offset="0" style="stop-color:#FFAC6A"/>
			<stop  offset="1" style="stop-color:#7F2A00"/>
		</radialGradient>
		<circle class="st5" cx="480" cy="480" r="422"/>
		<radialGradient id="SVGID_5_" cx="480" cy="480" r="422.0475" gradientUnits="userSpaceOnUse">
			<stop  offset="0" style="stop-color:#FFFFFF"/>
			<stop  offset="1" style="stop-color:#000000"/>
		</radialGradient>
		<path class="st6" d="M480,67c55.8,0,109.9,10.9,160.8,32.5c49.2,20.8,93.4,50.6,131.3,88.5c37.9,37.9,67.7,82.1,88.5,131.3
			c21.5,50.9,32.5,105,32.5,160.8s-10.9,109.9-32.5,160.8c-20.8,49.2-50.6,93.4-88.5,131.3c-37.9,37.9-82.1,67.7-131.3,88.5
			C589.9,882.1,535.8,893,480,893s-109.9-10.9-160.8-32.5c-49.2-20.8-93.4-50.6-131.3-88.5C150,734.1,120.2,690,99.4,640.8
			C77.9,589.9,67,535.8,67,480s10.9-109.9,32.5-160.8c20.8-49.2,50.6-93.4,88.5-131.3c37.9-37.9,82.1-67.7,131.3-88.5
			C370.1,77.9,424.2,67,480,67 M480,58c-233.1,0-422,189-422,422s189,422,422,422s422-189,422-422S713.1,58,480,58L480,58z"/>
	</g>
	<g class="st1">
		<linearGradient id="SVGID_6_" gradientUnits="userSpaceOnUse" x1="339.8779" y1="480.3081" x2="605.0762" y2="480.3081">
			<stop  offset="0" style="stop-color:#947400"/>
			<stop  offset="1" style="stop-color:#FFF655"/>
		</linearGradient>
		<path class="st7" d="M354.2,630.8c25.3,15.6,62.4,28.6,101.4,28.6c57.9,0,91.6-30.5,91.6-74.7c0-40.9-23.4-64.3-82.6-87.1
			C393.2,472.2,349,435.1,349,373.4c0-68.2,56.5-118.9,141.7-118.9c44.8,0,77.3,10.4,96.8,21.4L571.9,322
			c-14.3-7.8-43.5-20.8-83.2-20.8c-59.8,0-82.5,35.8-82.5,65.6c0,41,26.6,61.1,87.1,84.5c74.1,28.6,111.8,64.3,111.8,128.7
			c0,67.6-50,126.1-153.4,126.1c-42.2,0-88.4-12.3-111.8-27.9L354.2,630.8z"/>
	</g>
</g>
<g id="Ravenclaw" class="st0">
	<g class="st1">
		<radialGradient id="SVGID_7_" cx="480" cy="480" r="422.0475" gradientUnits="userSpaceOnUse">
			<stop  offset="0" style="stop-color:#FFAC6A"/>
			<stop  offset="1" style="stop-color:#7F2A00"/>
		</radialGradient>
		<circle class="st8" cx="480" cy="480" r="422"/>
		<radialGradient id="SVGID_8_" cx="480" cy="480" r="422.0475" gradientUnits="userSpaceOnUse">
			<stop  offset="0" style="stop-color:#FFFFFF"/>
			<stop  offset="1" style="stop-color:#000000"/>
		</radialGradient>
		<path class="st9" d="M480,67c55.8,0,109.9,10.9,160.8,32.5c49.2,20.8,93.4,50.6,131.3,88.5c37.9,37.9,67.7,82.1,88.5,131.3
			c21.5,50.9,32.5,105,32.5,160.8s-10.9,109.9-32.5,160.8c-20.8,49.2-50.6,93.4-88.5,131.3c-37.9,37.9-82.1,67.7-131.3,88.5
			C589.9,882.1,535.8,893,480,893s-109.9-10.9-160.8-32.5c-49.2-20.8-93.4-50.6-131.3-88.5C150,734.1,120.2,690,99.4,640.8
			C77.9,589.9,67,535.8,67,480s10.9-109.9,32.5-160.8c20.8-49.2,50.6-93.4,88.5-131.3c37.9-37.9,82.1-67.7,131.3-88.5
			C370.1,77.9,424.2,67,480,67 M480,58c-233.1,0-422,189-422,422s189,422,422,422s422-189,422-422S713.1,58,480,58L480,58z"/>
	</g>
	<g class="st1">
		<linearGradient id="SVGID_9_" gradientUnits="userSpaceOnUse" x1="349.4888" y1="483.9824" x2="634.8359" y2="483.9824">
			<stop  offset="0" style="stop-color:#947400"/>
			<stop  offset="1" style="stop-color:#FFF655"/>
		</linearGradient>
		<path class="st10" d="M349.5,272.4c28.6-5.8,69.5-9.1,108.5-9.1c60.4,0,99.4,11,126.7,35.7c22.1,19.5,34.4,49.4,34.4,83.2
			c0,57.8-36.4,96.2-82.5,111.8v2c33.8,11.7,53.9,42.9,64.3,88.4c14.3,61.1,24.7,103.3,33.8,120.2h-58.5
			c-7.2-12.4-16.9-50-29.2-104.6c-13-60.4-36.4-83.2-87.7-85.1H406v189.8h-56.5V272.4z M406,472h57.8c60.4,0,98.8-33.1,98.8-83.2
			c0-56.5-40.9-81.2-100.7-81.9c-27.3,0-46.8,2.6-55.9,5.2V472z"/>
	</g>
</g>
<g id="Hufflepuff">
	<g>
		<radialGradient id="SVGID_10_" cx="480" cy="480" r="422.0475" gradientUnits="userSpaceOnUse">
			<stop  offset="0" style="stop-color:#FFAC6A"/>
			<stop  offset="1" style="stop-color:#7F2A00"/>
		</radialGradient>
		<circle class="st11" cx="480" cy="480" r="422"/>
		<radialGradient id="SVGID_11_" cx="480" cy="480" r="422.0475" gradientUnits="userSpaceOnUse">
			<stop  offset="0" style="stop-color:#FFFFFF"/>
			<stop  offset="1" style="stop-color:#000000"/>
		</radialGradient>
		<path class="st12" d="M480,67c55.8,0,109.9,10.9,160.8,32.5c49.2,20.8,93.4,50.6,131.3,88.5c37.9,37.9,67.7,82.1,88.5,131.3
			c21.5,50.9,32.5,105,32.5,160.8s-10.9,109.9-32.5,160.8c-20.8,49.2-50.6,93.4-88.5,131.3c-37.9,37.9-82.1,67.7-131.3,88.5
			C589.9,882.1,535.8,893,480,893s-109.9-10.9-160.8-32.5c-49.2-20.8-93.4-50.6-131.3-88.5C150,734.1,120.2,690,99.4,640.8
			C77.9,589.9,67,535.8,67,480s10.9-109.9,32.5-160.8c20.8-49.2,50.6-93.4,88.5-131.3c37.9-37.9,82.1-67.7,131.3-88.5
			C370.1,77.9,424.2,67,480,67 M480,58c-233.1,0-422,189-422,422s189,422,422,422s422-189,422-422S713.1,58,480,58L480,58z"/>
	</g>
	<g>
		<linearGradient id="SVGID_12_" gradientUnits="userSpaceOnUse" x1="312.918" y1="489.6074" x2="638.5654" y2="489.6074">
			<stop  offset="0" style="stop-color:#947400"/>
			<stop  offset="1" style="stop-color:#FFF655"/>
		</linearGradient>
		<path class="st13" d="M369.5,270.6v183.3h211.9V270.6h57.2v438.1h-57.2V503.3H369.5v205.4h-56.5V270.6H369.5z"/>
	</g>
</g>
</svg>
